<svg width="243" height="181" viewBox="0 0 243 181" fill="none" xmlns="http://www.w3.org/2000/svg">
<path d="M160.548 167.838H156.335V167.959H160.548V167.838Z" fill="#EBEBEB"/>
<path d="M53.7501 162.836H50.6819V162.957H53.7501V162.836Z" fill="#EBEBEB"/>
<path d="M106.802 24.9533H110.486C110.772 24.9533 111 25.1811 111 25.4671V158.798H116.574V25.4671C116.574 25.1859 116.802 24.9533 117.088 24.9533H120.772C121.232 24.9533 121.46 24.4007 121.135 24.0759L114.151 17.0912C113.947 16.8876 113.622 16.8876 113.423 17.0912L106.444 24.0759C106.119 24.4007 106.347 24.9533 106.802 24.9533Z" fill="#EBEBEB"/>
<path d="M135.405 73.6183H139.089C139.375 73.6183 139.603 73.8461 139.603 74.1321V158.797H145.177V74.1272C145.177 73.8461 145.405 73.6134 145.691 73.6134H149.375C149.835 73.6134 150.063 73.0608 149.738 72.7361L142.754 65.7513C142.55 65.5477 142.225 65.5477 142.027 65.7513L135.042 72.7361C134.717 73.0608 134.95 73.6183 135.405 73.6183Z" fill="#EBEBEB"/>
<path d="M70.8848 101.538H74.5687C74.8546 101.538 75.0825 101.766 75.0825 102.052V158.798H80.6567V102.052C80.6567 101.771 80.8845 101.538 81.1705 101.538H84.8543C85.3148 101.538 85.5426 100.986 85.2179 100.661L78.2331 93.6761C78.0295 93.4725 77.7048 93.4725 77.506 93.6761L70.5213 100.661C70.2014 100.986 70.4292 101.538 70.8848 101.538Z" fill="#EBEBEB"/>
<path d="M54.7244 35.9475V31.0034L52.1797 30.7659C51.8355 29.1081 51.1812 27.5667 50.2796 26.1998L51.9131 24.2271L48.4183 20.7323L46.4455 22.3657C45.0786 21.469 43.5372 20.8098 41.8795 20.4657L41.642 17.9209H36.693L36.4555 20.4657C34.7978 20.8098 33.2564 21.4642 31.8895 22.3657L29.9167 20.7323L26.4219 24.2271L28.0554 26.1998C27.1587 27.5667 26.4994 29.1081 26.1553 30.7659L23.6105 31.0034V35.9475L26.1553 36.185C26.4994 37.8427 27.1538 39.3841 28.0554 40.751L26.4219 42.7238L29.9167 46.2186L31.8895 44.5851C33.2564 45.4818 34.7978 46.1411 36.4555 46.4852L36.693 49.03H41.6371L41.8746 46.4852C43.5324 46.1411 45.0738 45.4867 46.4407 44.5851L48.4134 46.2186L51.9082 42.7238L50.2748 40.751C51.1715 39.3841 51.8307 37.8427 52.1748 36.185L54.7244 35.9475ZM39.1651 40.1645C35.4715 40.1645 32.476 37.169 32.476 33.4754C32.476 29.777 35.4715 26.7815 39.1699 26.7815C42.8634 26.7815 45.8638 29.777 45.8638 33.4754C45.859 37.169 42.8635 40.1645 39.1651 40.1645Z" fill="#E0E0E0"/>
<path d="M74.7578 49.8981V46.0252L72.7656 45.8361C72.4941 44.5371 71.9804 43.3302 71.2775 42.2589L72.5572 40.7127L69.8185 37.974L68.2723 39.2537C67.2011 38.5509 65.9941 38.0371 64.6951 37.7656L64.506 35.7734H60.6331L60.4441 37.7656C59.1451 38.0371 57.9381 38.5509 56.8669 39.2537L55.3207 37.974L52.582 40.7127L53.8617 42.2589C53.1588 43.3302 52.645 44.5371 52.3736 45.8361L50.3814 46.0252V49.8981L52.3736 50.0871C52.645 51.3861 53.1588 52.5931 53.8617 53.6643L52.582 55.2105L55.3207 57.9492L56.8669 56.6695C57.9381 57.3724 59.1451 57.8862 60.4441 58.1576L60.6331 60.1498H64.506L64.6951 58.1576C65.9941 57.8862 67.2011 57.3724 68.2723 56.6695L69.8185 57.9492L72.5572 55.2105L71.2775 53.6643C71.9804 52.5931 72.4941 51.3861 72.7656 50.0871L74.7578 49.8981ZM62.5672 53.2087C59.6686 53.2087 57.3225 50.8626 57.3225 47.964C57.3225 45.0654 59.6686 42.7194 62.5672 42.7194C65.4658 42.7194 67.8118 45.0654 67.8118 47.964C67.8118 50.8578 65.4658 53.2087 62.5672 53.2087Z" fill="#E0E0E0"/>
<path d="M53.2703 61.3805V58.128L51.5932 57.9681C51.3654 56.8774 50.934 55.8644 50.3426 54.9628L51.4187 53.6638L49.1163 51.3614L47.8173 52.4375C46.9157 51.8461 45.9026 51.4147 44.812 51.1869L44.6521 49.5098H41.3996L41.2397 51.1869C40.1491 51.4147 39.136 51.8461 38.2344 52.4375L36.9354 51.3614L34.633 53.6638L35.7091 54.9628C35.1177 55.8644 34.6863 56.8774 34.4585 57.9681L32.7814 58.128V61.3805L34.4585 61.5404C34.6863 62.631 35.1177 63.6441 35.7091 64.5457L34.633 65.8447L36.9354 68.1471L38.2344 67.071C39.136 67.6624 40.1491 68.0938 41.2397 68.3216L41.3996 69.9987H44.6521L44.812 68.3216C45.9026 68.0938 46.9157 67.6624 47.8173 67.071L49.1163 68.1471L51.4187 65.8447L50.3426 64.5457C50.934 63.6441 51.3654 62.631 51.5932 61.5404L53.2703 61.3805ZM43.0283 64.1579C40.595 64.1579 38.6222 62.1851 38.6222 59.7518C38.6222 57.3185 40.595 55.3457 43.0283 55.3457C45.4615 55.3457 47.4343 57.3185 47.4343 59.7518C47.4343 62.1851 45.4615 64.1579 43.0283 64.1579Z" fill="#E0E0E0"/>
<path d="M186.01 104.234V109.178L188.554 109.415C188.899 111.073 189.553 112.615 190.455 113.981L188.821 115.954L192.316 119.449L194.289 117.816C195.656 118.712 197.197 119.372 198.855 119.716L199.092 122.26H204.036L204.274 119.716C205.932 119.372 207.473 118.717 208.84 117.816L210.813 119.449L214.307 115.954L212.674 113.981C213.571 112.615 214.23 111.073 214.574 109.415L217.119 109.178V104.234L214.574 103.996C214.23 102.339 213.576 100.797 212.674 99.4303L214.307 97.4575L210.813 93.9627L208.84 95.5962C207.473 94.6995 205.932 94.0403 204.274 93.6961L204.036 91.1514H199.092L198.855 93.6961C197.197 94.0403 195.656 94.6946 194.289 95.5962L192.316 93.9627L188.821 97.4575L190.455 99.4303C189.558 100.797 188.899 102.339 188.554 103.996L186.01 104.234ZM201.569 100.017C205.267 100.017 208.263 103.012 208.263 106.711C208.263 110.409 205.267 113.405 201.569 113.405C197.876 113.405 194.875 110.409 194.875 106.711C194.875 103.012 197.871 100.017 201.569 100.017Z" fill="#E0E0E0"/>
<path d="M165.976 90.284V94.1568L167.969 94.3459C168.24 95.6449 168.754 96.8519 169.457 97.9231L168.177 99.4693L170.916 102.208L172.462 100.928C173.533 101.631 174.74 102.145 176.039 102.416L176.228 104.409H180.101L180.29 102.416C181.589 102.145 182.796 101.631 183.867 100.928L185.414 102.208L188.152 99.4693L186.873 97.9231C187.575 96.8519 188.089 95.6449 188.361 94.3459L190.353 94.1568V90.284L188.361 90.0949C188.089 88.7959 187.575 87.589 186.873 86.5177L188.152 84.9715L185.414 82.2328L183.867 83.5125C182.796 82.8096 181.589 82.2959 180.29 82.0244L180.101 80.0322H176.228L176.039 82.0244C174.74 82.2959 173.533 82.8096 172.462 83.5125L170.916 82.2328L168.177 84.9715L169.457 86.5177C168.754 87.589 168.24 88.7959 167.969 90.0949L165.976 90.284ZM178.167 86.9734C181.066 86.9734 183.412 89.3194 183.412 92.218C183.412 95.1166 181.066 97.4626 178.167 97.4626C175.268 97.4626 172.922 95.1166 172.922 92.218C172.922 89.3242 175.268 86.9734 178.167 86.9734Z" fill="#E0E0E0"/>
<path d="M187.464 78.8009V82.0533L189.141 82.2133C189.369 83.3039 189.8 84.3169 190.392 85.2185L189.315 86.5175L191.618 88.82L192.917 87.7439C193.818 88.3352 194.832 88.7666 195.922 88.9944L196.082 90.6716H199.335L199.495 88.9944C200.585 88.7666 201.598 88.3352 202.5 87.7439L203.799 88.82L206.101 86.5175L205.025 85.2185C205.616 84.3169 206.048 83.3039 206.276 82.2133L207.953 82.0533V78.8009L206.276 78.6409C206.048 77.5503 205.616 76.5372 205.025 75.6357L206.101 74.3366L203.799 72.0342L202.5 73.1103C201.598 72.519 200.585 72.0876 199.495 71.8597L199.335 70.1826H196.082L195.922 71.8597C194.832 72.0876 193.818 72.519 192.917 73.1103L191.618 72.0342L189.315 74.3366L190.392 75.6357C189.8 76.5372 189.369 77.5503 189.141 78.6409L187.464 78.8009ZM197.706 76.0234C200.139 76.0234 202.112 77.9962 202.112 80.4295C202.112 82.8628 200.139 84.8356 197.706 84.8356C195.273 84.8356 193.3 82.8628 193.3 80.4295C193.3 77.9914 195.273 76.0234 197.706 76.0234Z" fill="#E0E0E0"/>
<path d="M105.668 127.854H113.763C114.388 127.854 114.892 128.358 114.892 128.979V158.798H127.136V128.979C127.136 128.358 127.64 127.854 128.261 127.854H136.355C137.364 127.854 137.868 126.638 137.15 125.925L121.809 110.584C121.368 110.143 120.651 110.143 120.214 110.584L104.868 125.925C104.165 126.638 104.67 127.854 105.668 127.854Z" fill="#E0E0E0"/>
<path d="M30.0039 102.828H38.0987C38.724 102.828 39.2281 103.332 39.2281 103.952V158.798H51.472V103.952C51.472 103.332 51.9761 102.828 52.5965 102.828H60.6913C61.6995 102.828 62.2036 101.611 61.4862 100.899L46.145 85.5623C45.7039 85.1212 44.9865 85.1212 44.5502 85.5623L29.2041 100.904C28.4965 101.611 29.0006 102.828 30.0039 102.828Z" fill="#E0E0E0"/>
<path d="M149.826 137.494H155.376C155.807 137.494 156.151 137.839 156.151 138.265V158.798H164.547V138.265C164.547 137.839 164.891 137.494 165.317 137.494H170.867C171.56 137.494 171.904 136.661 171.415 136.171L160.897 125.653C160.591 125.347 160.102 125.347 159.806 125.653L149.283 136.171C148.793 136.656 149.137 137.494 149.826 137.494Z" fill="#E0E0E0"/>
<path d="M139.055 160.745L143.839 166.891L145.56 166.634L140.509 160.745H139.055Z" fill="#263238"/>
<path opacity="0.3" d="M139.055 160.745L143.839 166.891L145.56 166.634L140.509 160.745H139.055Z" fill="black"/>
<path d="M140.509 154.929L145.294 161.075L147.014 160.818L141.964 154.929H140.509Z" fill="#263238"/>
<path opacity="0.3" d="M140.509 154.929L145.294 161.075L147.014 160.818L141.964 154.929H140.509Z" fill="black"/>
<path d="M154.275 151.778H174.958L170.106 164.589H149.423L154.275 151.778Z" fill="#263238"/>
<path opacity="0.3" d="M154.275 151.778H174.958L170.106 164.589H149.423L154.275 151.778Z" fill="black"/>
<path d="M138.219 161.393H171.078V159.74H138.219V161.393Z" fill="#263238"/>
<path opacity="0.2" d="M158.466 161.393H171.078V159.74H158.466V161.393Z" fill="black"/>
<path d="M140.161 156.54H173.019V154.887H140.161V156.54Z" fill="#263238"/>
<path opacity="0.2" d="M160.407 156.54H173.02V154.887H160.407V156.54Z" fill="black"/>
<path d="M174.924 151.865L176.073 153.198L171.711 164.623H170.004L174.924 151.865Z" fill="#263238"/>
<path d="M129.933 158.563L127.713 159.116C127.844 158.084 128.673 156.828 129.943 156.513C131.382 156.154 132.832 156.988 133.37 158.331C133.559 158.796 133.612 159.271 133.52 159.78L146.903 167.836C148.473 166.518 150.33 167.506 151.096 168.583L148.885 169.121C148.367 169.251 148.052 169.77 148.182 170.289C148.313 170.807 148.842 171.122 149.36 170.992L151.58 170.439C151.449 171.471 150.621 172.722 149.351 173.042C147.911 173.401 146.418 172.644 145.875 171.302C145.686 170.836 145.584 170.439 145.677 169.93L132.294 161.874C130.975 162.776 128.915 162.126 128.149 161.05L130.384 160.473C130.902 160.342 131.227 159.804 131.096 159.286C130.965 158.767 130.452 158.433 129.933 158.563Z" fill="#263238"/>
<path opacity="0.6" d="M129.933 158.563L127.713 159.116C127.844 158.084 128.673 156.828 129.943 156.513C131.382 156.154 132.832 156.988 133.37 158.331C133.559 158.796 133.612 159.271 133.52 159.78L146.903 167.836C148.473 166.518 150.33 167.506 151.096 168.583L148.885 169.121C148.367 169.251 148.052 169.77 148.182 170.289C148.313 170.807 148.842 171.122 149.36 170.992L151.58 170.439C151.449 171.471 150.621 172.722 149.351 173.042C147.911 173.401 146.418 172.644 145.875 171.302C145.686 170.836 145.584 170.439 145.677 169.93L132.294 161.874C130.975 162.776 128.915 162.126 128.149 161.05L130.384 160.473C130.902 160.342 131.227 159.804 131.096 159.286C130.965 158.767 130.452 158.433 129.933 158.563Z" fill="white"/>
<path d="M134.334 175.032H170.106V164.587H134.334V175.032Z" fill="#263238"/>
<path opacity="0.2" d="M156.04 175.032H170.107V164.587H156.04V175.032Z" fill="black"/>
<path d="M182.67 172.388L184.284 170.769C184.706 171.719 184.643 173.222 183.722 174.147C182.675 175.199 181.003 175.233 179.849 174.361C179.447 174.055 179.156 173.682 178.972 173.197L163.349 173.222C162.685 175.16 160.586 175.272 159.375 174.748L160.989 173.144C161.367 172.766 161.367 172.16 160.989 171.782C160.611 171.404 159.995 171.409 159.617 171.787L158.003 173.411C157.581 172.461 157.644 170.958 158.57 170.032C159.617 168.98 161.284 168.854 162.443 169.727C162.845 170.032 163.136 170.318 163.32 170.798L178.943 170.779C179.607 169.325 181.705 168.82 182.917 169.344L181.303 170.992C180.925 171.37 180.925 172 181.303 172.378C181.676 172.751 182.292 172.766 182.67 172.388Z" fill="#263238"/>
<path opacity="0.6" d="M182.67 172.388L184.284 170.769C184.706 171.719 184.643 173.222 183.722 174.147C182.675 175.199 181.003 175.233 179.849 174.361C179.447 174.055 179.156 173.682 178.972 173.197L163.349 173.222C162.685 175.16 160.586 175.272 159.375 174.748L160.989 173.144C161.367 172.766 161.367 172.16 160.989 171.782C160.611 171.404 159.995 171.409 159.617 171.787L158.003 173.411C157.581 172.461 157.644 170.958 158.57 170.032C159.617 168.98 161.284 168.854 162.443 169.727C162.845 170.032 163.136 170.318 163.32 170.798L178.943 170.779C179.607 169.325 181.705 168.82 182.917 169.344L181.303 170.992C180.925 171.37 180.925 172 181.303 172.378C181.676 172.751 182.292 172.766 182.67 172.388Z" fill="white"/>
<path d="M66.2994 138.479L69.3192 134.819C69.8184 134.213 70.56 133.864 71.3453 133.864H74.1324C74.8401 133.864 75.2569 134.664 74.8498 135.246L72.9206 137.984L66.2994 138.479Z" fill="#32D8DE"/>
<path opacity="0.3" d="M66.2994 138.479L69.3192 134.819C69.8184 134.213 70.56 133.864 71.3453 133.864H74.1324C74.8401 133.864 75.2569 134.664 74.8498 135.246L72.9206 137.984L66.2994 138.479Z" fill="black"/>
<path d="M34.4681 137.984L31.0751 126.846H63.4832L66.2994 138.479L34.4681 137.984Z" fill="#32D8DE"/>
<path d="M31.0751 126.846L32.2626 125.309C32.8831 124.504 33.8428 124.034 34.8559 124.034H62.5477C63.3232 124.034 63.9049 124.747 63.7498 125.508L63.4783 126.846H31.0751Z" fill="#32D8DE"/>
<path opacity="0.3" d="M34.4681 137.984L31.0751 126.846H63.4832L66.2994 138.479L34.4681 137.984Z" fill="black"/>
<path opacity="0.2" d="M31.0751 126.846L32.2626 125.309C32.8831 124.504 33.8428 124.034 34.8559 124.034H62.5477C63.3232 124.034 63.9049 124.747 63.7498 125.508L63.4783 126.846H31.0751Z" fill="black"/>
<path d="M49.3004 112.044L47.3615 111.622L47.7154 109.998C47.7541 109.828 47.9238 109.717 48.0934 109.756L49.407 110.042C49.5767 110.081 49.6881 110.25 49.6494 110.42L49.3004 112.044Z" fill="#32D8DE"/>
<path d="M53.0181 112.853L51.0793 112.431L51.4331 110.808C51.4719 110.638 51.6416 110.527 51.8112 110.565L53.1248 110.851C53.2944 110.89 53.4059 111.06 53.3671 111.229L53.0181 112.853Z" fill="#32D8DE"/>
<path d="M56.7359 113.668L54.7971 113.246L55.1509 111.622C55.1897 111.452 55.3593 111.341 55.529 111.38L56.8426 111.666C57.0122 111.705 57.1237 111.874 57.0849 112.044L56.7359 113.668Z" fill="#32D8DE"/>
<path d="M60.4537 114.476L58.5148 114.055L58.8687 112.431C58.9074 112.261 59.0771 112.15 59.2468 112.188L60.5603 112.474C60.73 112.513 60.8415 112.683 60.8027 112.852L60.4537 114.476Z" fill="#32D8DE"/>
<path d="M64.1715 115.292L62.2326 114.87L62.5864 113.246C62.6252 113.077 62.7949 112.965 62.9645 113.004L64.2781 113.29C64.4478 113.329 64.5592 113.498 64.5205 113.668L64.1715 115.292Z" fill="#32D8DE"/>
<path d="M67.8892 116.105L65.9504 115.683L66.3042 114.06C66.343 113.89 66.5127 113.779 66.6823 113.817L67.9959 114.103C68.1655 114.142 68.277 114.312 68.2382 114.481L67.8892 116.105Z" fill="#32D8DE"/>
<path d="M60.8947 138.838L62.8336 139.26L62.4798 140.883C62.441 141.053 62.2713 141.165 62.1017 141.126L60.7881 140.84C60.6184 140.801 60.507 140.631 60.5457 140.462L60.8947 138.838Z" fill="#32D8DE"/>
<path d="M57.177 138.028L59.1158 138.45L58.762 140.074C58.7232 140.243 58.5536 140.355 58.3839 140.316L57.0703 140.03C56.9007 139.991 56.7892 139.822 56.828 139.652L57.177 138.028Z" fill="#32D8DE"/>
<path d="M53.4592 137.213L55.3981 137.635L55.0442 139.258C55.0054 139.428 54.8358 139.54 54.6661 139.501L53.3526 139.215C53.1829 139.176 53.0714 139.006 53.1102 138.837L53.4592 137.213Z" fill="#32D8DE"/>
<path d="M49.7414 136.404L51.6803 136.826L51.3264 138.45C51.2877 138.619 51.118 138.731 50.9484 138.692L49.6348 138.406C49.4651 138.367 49.3536 138.198 49.3924 138.028L49.7414 136.404Z" fill="#32D8DE"/>
<path d="M46.0188 135.59L47.9577 136.012L47.6038 137.635C47.5651 137.805 47.3954 137.916 47.2258 137.878L45.9122 137.592C45.7425 137.553 45.631 137.383 45.6698 137.214L46.0188 135.59Z" fill="#32D8DE"/>
<path d="M42.301 134.78L44.2399 135.202L43.8861 136.826C43.8473 136.995 43.6776 137.107 43.508 137.068L42.1944 136.782C42.0248 136.743 41.9133 136.574 41.9521 136.404L42.301 134.78Z" fill="#32D8DE"/>
<g opacity="0.4">
<path d="M49.3004 112.044L47.3615 111.622L47.7154 109.998C47.7541 109.828 47.9238 109.717 48.0934 109.756L49.407 110.042C49.5767 110.081 49.6881 110.25 49.6494 110.42L49.3004 112.044Z" fill="white"/>
<path d="M53.0181 112.853L51.0793 112.431L51.4331 110.808C51.4719 110.638 51.6416 110.527 51.8112 110.565L53.1248 110.851C53.2944 110.89 53.4059 111.06 53.3671 111.229L53.0181 112.853Z" fill="white"/>
<path d="M56.7359 113.668L54.7971 113.246L55.1509 111.622C55.1897 111.452 55.3593 111.341 55.529 111.38L56.8426 111.666C57.0122 111.705 57.1237 111.874 57.0849 112.044L56.7359 113.668Z" fill="white"/>
<path d="M60.4537 114.476L58.5148 114.055L58.8687 112.431C58.9074 112.261 59.0771 112.15 59.2468 112.188L60.5603 112.474C60.73 112.513 60.8415 112.683 60.8027 112.852L60.4537 114.476Z" fill="white"/>
<path d="M64.1715 115.292L62.2326 114.87L62.5864 113.246C62.6252 113.077 62.7949 112.965 62.9645 113.004L64.2781 113.29C64.4478 113.329 64.5592 113.498 64.5205 113.668L64.1715 115.292Z" fill="white"/>
<path d="M67.8892 116.105L65.9504 115.683L66.3042 114.06C66.343 113.89 66.5127 113.779 66.6823 113.817L67.9959 114.103C68.1655 114.142 68.277 114.312 68.2382 114.481L67.8892 116.105Z" fill="white"/>
<path d="M60.8947 138.838L62.8336 139.26L62.4798 140.883C62.441 141.053 62.2713 141.165 62.1017 141.126L60.7881 140.84C60.6184 140.801 60.507 140.631 60.5457 140.462L60.8947 138.838Z" fill="white"/>
<path d="M57.177 138.028L59.1158 138.45L58.762 140.074C58.7232 140.243 58.5536 140.355 58.3839 140.316L57.0703 140.03C56.9007 139.991 56.7892 139.822 56.828 139.652L57.177 138.028Z" fill="white"/>
<path d="M53.4592 137.213L55.3981 137.635L55.0442 139.258C55.0054 139.428 54.8358 139.54 54.6661 139.501L53.3526 139.215C53.1829 139.176 53.0714 139.006 53.1102 138.837L53.4592 137.213Z" fill="white"/>
<path d="M49.7414 136.404L51.6803 136.826L51.3264 138.45C51.2877 138.619 51.118 138.731 50.9484 138.692L49.6348 138.406C49.4651 138.367 49.3536 138.198 49.3924 138.028L49.7414 136.404Z" fill="white"/>
<path d="M46.0188 135.59L47.9577 136.012L47.6038 137.635C47.5651 137.805 47.3954 137.916 47.2258 137.878L45.9122 137.592C45.7425 137.553 45.631 137.383 45.6698 137.214L46.0188 135.59Z" fill="white"/>
<path d="M42.301 134.78L44.2399 135.202L43.8861 136.826C43.8473 136.995 43.6776 137.107 43.508 137.068L42.1944 136.782C42.0248 136.743 41.9133 136.574 41.9521 136.404L42.301 134.78Z" fill="white"/>
</g>
<path d="M65.2136 140.476L40.7354 135.13C39.8048 134.926 39.2134 134.005 39.417 133.074L44.0267 111.97C44.2302 111.039 45.1512 110.448 46.0819 110.651L70.56 115.998C71.4907 116.201 72.082 117.122 71.8784 118.053L67.2688 139.158C67.0652 140.088 66.1442 140.68 65.2136 140.476Z" fill="#263238"/>
<path opacity="0.4" d="M43.1057 135.643L40.7403 135.125C39.8097 134.921 39.2183 134.005 39.4219 133.07L44.0315 111.965C44.2351 111.034 45.1512 110.443 46.0867 110.647L48.4521 111.165C47.5215 110.962 46.6005 111.548 46.397 112.484L41.7873 133.588C41.5837 134.524 42.1751 135.44 43.1057 135.643Z" fill="black"/>
<path d="M40.9875 131.082L40.5658 133.021L38.942 132.667C38.7723 132.629 38.6608 132.459 38.6996 132.289L38.9856 130.976C39.0244 130.806 39.194 130.695 39.3637 130.733L40.9875 131.082Z" fill="#32D8DE"/>
<path d="M41.8018 127.365L41.3801 129.303L39.7563 128.95C39.5866 128.911 39.4752 128.741 39.5139 128.571L39.7999 127.258C39.8387 127.088 40.0084 126.977 40.178 127.016L41.8018 127.365Z" fill="#32D8DE"/>
<path d="M42.6112 123.647L42.1895 125.586L40.5657 125.232C40.3961 125.193 40.2846 125.023 40.3234 124.854L40.6094 123.54C40.6481 123.37 40.8178 123.259 40.9874 123.298L42.6112 123.647Z" fill="#32D8DE"/>
<path d="M43.4256 119.929L43.0039 121.868L41.3801 121.514C41.2104 121.475 41.0989 121.306 41.1377 121.136L41.4237 119.822C41.4625 119.653 41.6321 119.541 41.8018 119.58L43.4256 119.929Z" fill="#32D8DE"/>
<path d="M44.2351 116.211L43.8134 118.15L42.1896 117.796C42.0199 117.757 41.9085 117.588 41.9472 117.418L42.2332 116.105C42.272 115.935 42.4416 115.823 42.6113 115.862L44.2351 116.211Z" fill="#32D8DE"/>
<path d="M45.0494 112.493L44.6277 114.432L43.0039 114.078C42.8343 114.04 42.7228 113.87 42.7616 113.7L43.0475 112.387C43.0863 112.217 43.256 112.106 43.4256 112.144L45.0494 112.493Z" fill="#32D8DE"/>
<g opacity="0.4">
<path d="M40.9875 131.082L40.5658 133.021L38.942 132.667C38.7723 132.629 38.6608 132.459 38.6996 132.289L38.9856 130.976C39.0244 130.806 39.194 130.695 39.3637 130.733L40.9875 131.082Z" fill="white"/>
<path d="M41.8018 127.365L41.3801 129.303L39.7563 128.95C39.5866 128.911 39.4752 128.741 39.5139 128.571L39.7999 127.258C39.8387 127.088 40.0084 126.977 40.178 127.016L41.8018 127.365Z" fill="white"/>
<path d="M42.6112 123.647L42.1895 125.586L40.5657 125.232C40.3961 125.193 40.2846 125.023 40.3234 124.854L40.6094 123.54C40.6481 123.37 40.8178 123.259 40.9874 123.298L42.6112 123.647Z" fill="white"/>
<path d="M43.4256 119.929L43.0039 121.868L41.3801 121.514C41.2104 121.475 41.0989 121.306 41.1377 121.136L41.4237 119.822C41.4625 119.653 41.6321 119.541 41.8018 119.58L43.4256 119.929Z" fill="white"/>
<path d="M44.2351 116.211L43.8134 118.15L42.1896 117.796C42.0199 117.757 41.9085 117.588 41.9472 117.418L42.2332 116.105C42.272 115.935 42.4416 115.823 42.6113 115.862L44.2351 116.211Z" fill="white"/>
<path d="M45.0494 112.493L44.6277 114.432L43.0039 114.078C42.8343 114.04 42.7228 113.87 42.7616 113.7L43.0475 112.387C43.0863 112.217 43.256 112.106 43.4256 112.144L45.0494 112.493Z" fill="white"/>
</g>
<path d="M72.9157 137.984H34.4681V175.031H72.9157V137.984Z" fill="#32D8DE"/>
<path opacity="0.2" d="M40.9196 137.984H34.4681V175.031H40.9196V137.984Z" fill="black"/>
<path d="M40.9196 137.984L37.3958 133.67C36.8723 133.03 36.0967 132.662 35.2727 132.662H32.4323C31.5259 132.662 31.0266 133.709 31.5937 134.412L34.4681 137.984H40.9196Z" fill="#32D8DE"/>
<path d="M132.681 70.7006C130.156 71.9511 124.882 74.1663 119.928 73.8124C118.712 73.7252 117.515 73.4877 116.385 73.0369C114.761 72.3922 113.729 70.7539 113.113 68.5823C110.869 60.7348 114.01 45.9219 114.01 45.9219C118.576 46.6683 122.987 64.472 124.713 65.4462C126.438 66.4205 133.782 66.0812 133.782 66.0812L134.024 68.2576C134.135 69.2755 133.597 70.2498 132.681 70.7006Z" fill="#32D8DE"/>
<path opacity="0.3" d="M119.928 73.8128C118.712 73.7256 117.515 73.4881 116.385 73.0373C114.761 72.3926 113.729 70.7543 113.113 68.5828C113.288 67.4097 113.496 66.5809 113.496 66.5809L121.891 64.167C121.891 64.167 122.24 70.2308 119.928 73.8128Z" fill="black"/>
<path d="M113.351 171.308L117.403 171.739L118.164 162.99L114.112 162.563L113.351 171.308Z" fill="#B97964"/>
<path d="M93.1091 171.013H97.0401L97.3649 161.91H93.429L93.1091 171.013Z" fill="#B97964"/>
<path d="M97.5879 170.557H92.8134C92.6535 170.557 92.5129 170.668 92.479 170.828L91.7034 174.328C91.6356 174.643 91.8392 174.948 92.1494 175.016C92.193 175.026 92.2318 175.031 92.2754 175.031C93.8216 175.007 94.9462 174.91 96.885 174.91C98.0823 174.91 101.684 175.036 103.337 175.036C104.989 175.036 105.203 173.407 104.524 173.257C101.495 172.597 99.2165 171.681 98.2471 170.814C98.0678 170.644 97.8302 170.552 97.5879 170.557Z" fill="#263238"/>
<path d="M97.8545 171.104C97.8157 171.095 97.7915 171.061 97.7866 171.022C97.7818 170.983 97.7963 170.949 97.8302 170.93C97.9708 170.838 99.2408 170.062 99.677 170.285C99.7788 170.334 99.8418 170.435 99.837 170.547C99.8612 170.736 99.7885 170.925 99.6431 171.046C99.4201 171.196 99.1535 171.269 98.8869 171.245C98.5379 171.24 98.1938 171.192 97.8545 171.104ZM98.1259 170.974C98.5864 171.129 99.0857 171.104 99.5267 170.906C99.6188 170.823 99.6673 170.697 99.6528 170.571C99.6479 170.498 99.6188 170.46 99.5946 170.46C99.5558 170.44 99.517 170.431 99.4734 170.435C98.9936 170.528 98.5331 170.707 98.1259 170.974Z" fill="#32D8DE"/>
<path d="M97.8302 171.124C97.8011 171.105 97.7866 171.076 97.7866 171.037C97.7914 170.984 97.8884 169.854 98.3391 169.481C98.4458 169.384 98.5912 169.341 98.7318 169.36C98.8772 169.36 99.0032 169.462 99.0323 169.607C99.1098 170.024 98.3294 170.887 97.9223 171.105H97.8786C97.8641 171.12 97.8496 171.124 97.8302 171.124ZM98.4603 169.593C98.184 169.946 98.0241 170.373 97.995 170.824C98.4021 170.518 98.9014 169.864 98.8481 169.607C98.8432 169.583 98.8335 169.51 98.7124 169.51H98.6687C98.5912 169.515 98.5185 169.544 98.4603 169.593Z" fill="#32D8DE"/>
<path d="M117.834 170.436H113.06C112.9 170.436 112.759 170.547 112.725 170.707L111.95 174.207C111.882 174.522 112.086 174.827 112.396 174.895C112.44 174.905 112.478 174.91 112.522 174.91C114.068 174.885 115.193 174.788 117.132 174.788C118.329 174.788 121.93 174.915 123.583 174.915C125.231 174.915 125.449 173.286 124.771 173.136C121.741 172.476 119.463 171.56 118.494 170.693C118.314 170.518 118.077 170.431 117.834 170.436Z" fill="#263238"/>
<path d="M118.101 170.978C118.062 170.969 118.038 170.935 118.033 170.896C118.028 170.857 118.043 170.823 118.077 170.804C118.217 170.712 119.487 169.936 119.924 170.159C120.025 170.208 120.088 170.309 120.083 170.421C120.108 170.61 120.035 170.799 119.89 170.92C119.667 171.071 119.4 171.143 119.133 171.119C118.784 171.114 118.44 171.066 118.101 170.978ZM118.372 170.848C118.833 171.003 119.332 170.978 119.773 170.78C119.865 170.697 119.914 170.571 119.899 170.445C119.894 170.373 119.865 170.334 119.841 170.334C119.802 170.314 119.764 170.305 119.72 170.309C119.24 170.402 118.784 170.586 118.372 170.848Z" fill="#32D8DE"/>
<path d="M118.077 170.998C118.048 170.979 118.033 170.95 118.033 170.911C118.038 170.858 118.135 169.728 118.586 169.355C118.692 169.258 118.838 169.215 118.978 169.234C119.124 169.234 119.25 169.336 119.279 169.481C119.356 169.898 118.576 170.761 118.169 170.979H118.125C118.116 170.994 118.096 170.998 118.077 170.998ZM118.707 169.472C118.431 169.825 118.266 170.252 118.242 170.703C118.649 170.397 119.148 169.743 119.095 169.486C119.09 169.462 119.08 169.389 118.959 169.389H118.915C118.843 169.389 118.765 169.418 118.707 169.472Z" fill="#32D8DE"/>
<path opacity="0.2" d="M114.112 162.563L118.164 162.99L117.771 167.503L113.714 167.071L114.112 162.563Z" fill="black"/>
<path opacity="0.2" d="M93.429 161.914H97.3649L97.1952 166.611H93.2593L93.429 161.914Z" fill="black"/>
<path d="M95.0528 82.0527H115.915C117.897 92.8813 124.107 131.208 119.652 165.361L112.59 164.484C112.59 164.484 113.244 119.148 107.011 102.391C106.293 111.359 105.44 120.903 104.703 125.983C102.891 138.483 99.0032 165.797 99.0032 165.797H91.8149C91.8149 165.797 93.2836 139.652 93.9622 127.369C94.7038 114.029 95.0237 84.7914 95.0528 82.0527Z" fill="#263238"/>
<path opacity="0.2" d="M107.011 102.392C107.932 104.864 108.698 107.947 109.342 111.417C109.924 103.434 107.592 94.9707 107.592 94.9707L107.011 102.392Z" fill="black"/>
<path d="M120.457 167.004L111.717 165.705L111.984 163.286L121.077 164.479L120.457 167.004Z" fill="#32D8DE"/>
<path opacity="0.6" d="M120.457 167.004L111.717 165.705L111.984 163.286L121.077 164.479L120.457 167.004Z" fill="white"/>
<path d="M99.866 165.856H91.3884V163.321L100.186 163.156L99.866 165.856Z" fill="#32D8DE"/>
<path opacity="0.6" d="M99.866 165.856H91.3884V163.321L100.186 163.156L99.866 165.856Z" fill="white"/>
<path d="M94.6117 89.8615V92.1154L117.718 90.986V88.9502L94.6117 89.8615Z" fill="#32D8DE"/>
<path d="M131.746 67.3901C131.746 67.3901 131.61 68.4662 133.336 69.4065H135.541C135.541 69.4065 136.404 69.9203 136.981 69.8912C137.557 69.867 140.316 67.8264 140.815 67.3853C141.314 66.9442 139.952 62.0098 139.952 62.0098L131.746 67.3901Z" fill="#B97964"/>
<path d="M114.01 45.9215C114.01 45.9215 100.739 45.2768 90.8552 47.7731C90.8552 47.7731 94.0494 76.3907 94.0688 89.541C94.0688 90.113 94.5439 90.5686 95.1207 90.5493L117.408 89.7737C117.97 89.7543 118.406 89.2841 118.387 88.7267C118.183 83.2882 117.083 57.4335 114.01 45.9215Z" fill="#32D8DE"/>
<path opacity="0.2" d="M118.382 88.7219C118.402 89.2841 117.965 89.7495 117.403 89.7689L95.1158 90.5444C94.5438 90.5686 94.0688 90.113 94.0688 89.5362C94.064 86.8606 93.9283 83.5403 93.715 79.9534C93.6132 78.3344 93.5017 76.6621 93.3757 74.9656C93.2351 72.9783 93.0752 70.9619 92.9104 68.9746C92.5323 64.4376 92.1203 60.0412 91.7616 56.4398C91.2478 51.297 90.8552 47.7731 90.8552 47.7731C100.739 45.2768 114.01 45.9215 114.01 45.9215C117.083 57.4335 118.183 83.2882 118.382 88.7219Z" fill="black"/>
<path d="M98.4022 46.4306C100.317 48.1707 105.009 47.526 105.009 47.526C105.009 47.526 107.937 46.7263 107.321 45.8101C105.595 45.5242 104.762 44.7195 104.417 43.6919C104.219 43.0909 104.19 42.4171 104.243 41.724C104.267 41.3605 104.325 40.9872 104.388 40.6237L98.5912 36.3291C99.3474 39.1647 100.273 44.3754 98.4022 46.4306Z" fill="#B97964"/>
<path opacity="0.2" d="M99.9242 39.0586C100.152 42.5389 103.012 43.4986 104.413 43.6925C104.214 43.0914 104.185 42.4177 104.238 41.7245L99.9242 39.0586Z" fill="black"/>
<path d="M109.934 28.0598C109.934 28.0598 110.758 33.4741 107.883 35.5584C105.009 37.6426 105.009 27.5605 105.009 27.5605L109.934 28.0598Z" fill="#263238"/>
<path d="M99.5364 39.863C100.932 41.8697 103.206 42.3932 105.179 41.7679C106.448 41.3656 107.592 40.4882 108.305 39.2231C108.402 39.0583 108.484 38.8838 108.567 38.7045C109.982 35.3939 110.433 29.6064 106.933 27.4348C104.447 25.8692 101.16 26.6157 99.5946 29.1071C99.1438 29.81 98.8724 30.6146 98.7948 31.4531C98.3586 35.3163 97.9272 37.5751 99.5364 39.863Z" fill="#B97964"/>
<path d="M104.432 33.5183C104.359 33.8236 104.5 34.1096 104.708 34.1435C104.917 34.1775 105.12 33.9497 105.174 33.6394C105.227 33.3292 105.101 33.0481 104.897 33.0142C104.699 32.9802 104.49 33.2032 104.432 33.5183Z" fill="#263238"/>
<path d="M107.966 34.1186C107.893 34.424 108.038 34.71 108.242 34.7439C108.446 34.7778 108.654 34.55 108.707 34.2398C108.761 33.9296 108.635 33.6484 108.431 33.6145C108.227 33.5806 108.014 33.8229 107.966 34.1186Z" fill="#263238"/>
<path d="M106.817 34.0801C107.025 35.098 107.374 36.0868 107.854 37.0078C107.365 37.2453 106.797 37.255 106.303 37.032L106.817 34.0801Z" fill="#A24E3F"/>
<path d="M103.53 32.1844C103.598 32.2038 103.671 32.1893 103.719 32.1457C104.059 31.816 104.529 31.6609 104.999 31.7336C105.096 31.7579 105.198 31.6997 105.222 31.5979C105.246 31.501 105.188 31.3992 105.086 31.375C104.495 31.2683 103.894 31.4574 103.467 31.8742C103.39 31.9421 103.385 32.0584 103.453 32.136C103.453 32.136 103.453 32.136 103.458 32.1408C103.477 32.1553 103.501 32.1747 103.53 32.1844Z" fill="#263238"/>
<path d="M105.518 38.5635C104.587 38.5441 103.724 38.0739 103.201 37.3032C103.172 37.2547 103.191 37.1966 103.235 37.1675C103.278 37.1384 103.337 37.1529 103.366 37.1966L103.371 37.2014C103.865 37.9042 104.665 38.3356 105.528 38.3599C105.581 38.3599 105.624 38.4035 105.624 38.452C105.624 38.4568 105.624 38.4568 105.624 38.4617C105.624 38.515 105.581 38.5586 105.532 38.5586C105.528 38.5635 105.523 38.5635 105.518 38.5635Z" fill="#263238"/>
<path d="M109.691 33.1593C109.725 33.1787 109.759 33.1884 109.798 33.1835C109.895 33.1544 109.953 33.0526 109.929 32.9557V32.9508C109.774 32.3692 109.347 31.9039 108.785 31.6954C108.688 31.6663 108.586 31.7197 108.552 31.8166C108.523 31.9135 108.581 32.0153 108.678 32.0493C109.119 32.2238 109.449 32.6018 109.57 33.0575C109.589 33.1108 109.633 33.1496 109.691 33.1593Z" fill="#263238"/>
<path d="M102.425 27.1435V28.874C101.829 29.1018 101.417 29.6931 101.592 30.396C101.965 31.8937 100.884 34.0168 99.677 34.7681C99.677 34.7681 99.7207 34.1428 99.1778 34.2252C98.6349 34.3076 98.3877 37.5601 99.2214 39.2226C99.2214 39.2226 97.8448 37.6376 97.3892 34.138C96.9675 30.9001 97.1856 28.2729 97.9757 27.1387H102.425V27.1435Z" fill="#263238"/>
<path d="M96.5748 34.3077C96.8511 35.2481 97.4909 36.043 98.3537 36.5132C99.4976 37.1288 100.351 36.169 100.273 34.9427C100.196 33.8521 99.517 32.1798 98.2471 32.0877C96.982 31.9908 96.25 33.1492 96.5748 34.3077Z" fill="#B97964"/>
<path d="M102.425 28.8693C102.425 28.8693 103.55 29.9842 104.64 29.1698C104.64 29.1698 105.877 30.1974 106.88 29.4704C106.88 29.4704 107.432 30.401 108.334 30.5125C109.236 30.624 109.24 29.6933 109.24 29.6933C109.24 29.6933 110.666 30.5125 111.194 30.1296C111.722 29.7466 110.908 28.2101 110.908 28.2101C110.908 28.2101 111.577 27.8466 111.145 26.6154C110.714 25.3842 108.722 25.6702 108.722 25.6702C108.722 25.6702 108.799 24.5214 107.408 23.3193C106.017 22.1221 105.188 23.6053 105.188 23.6053C105.188 23.6053 103.841 21.7828 102.173 22.0251C100.506 22.2626 100.695 23.4163 100.695 23.4163C100.695 23.4163 98.7754 22.219 97.9126 23.4163C97.0498 24.6135 97.9126 25.1903 97.9126 25.1903C97.9126 25.1903 95.9932 25.835 96.0901 27.1437C96.187 28.4525 97.171 28.2586 97.171 28.2586C97.171 28.2586 96.6184 28.8839 97.8642 29.4073C99.1099 29.9357 100.283 28.6415 100.283 28.6415C100.283 28.6415 99.7982 29.3831 100.695 29.8872C101.592 30.3913 102.425 28.8693 102.425 28.8693Z" fill="#263238"/>
<path d="M105.009 47.5314C105.009 47.5314 98.2422 42.9363 96.0901 42.6794C93.9379 42.4225 94.3208 45.1079 94.3208 45.1079C94.3208 45.1079 92.6583 45.1079 93.2981 47.1534C93.9379 49.1989 103.128 50.3282 106.521 49.3152C109.914 48.3021 111.935 46.402 111.373 44.6038C110.811 42.8055 109.24 44.3469 109.24 44.3469C109.24 44.3469 108.329 42.6552 107.011 43.0527C105.692 43.4404 105.009 47.5314 105.009 47.5314Z" fill="#32D8DE"/>
<path d="M104.005 49.3105C105.973 52.7036 102.959 56.5619 104.485 60.0761" stroke="white" stroke-width="0.484716" stroke-miterlimit="10" stroke-linecap="round" stroke-linejoin="round"/>
<path d="M107.079 48.6172C107.079 48.6172 108.814 50.0132 109.619 53.0233C110.428 56.0333 109.211 59.0677 109.211 59.0677" stroke="white" stroke-width="0.484716" stroke-miterlimit="10" stroke-linecap="round" stroke-linejoin="round"/>
<path d="M119.134 45.9229L117.199 46.3543L116.836 44.7305C116.797 44.5608 116.904 44.3863 117.078 44.3476L118.392 44.0519C118.562 44.0131 118.736 44.1198 118.775 44.2943L119.134 45.9229Z" fill="#32D8DE"/>
<path d="M122.846 45.0889L120.912 45.5203L120.549 43.8965C120.51 43.7269 120.617 43.5524 120.791 43.5136L122.105 43.2179C122.274 43.1791 122.449 43.2858 122.488 43.4603L122.846 45.0889Z" fill="#32D8DE"/>
<path d="M126.564 44.2598L124.63 44.6912L124.267 43.0674C124.228 42.8978 124.335 42.7233 124.509 42.6845L125.823 42.3888C125.992 42.35 126.167 42.4567 126.206 42.6312L126.564 44.2598Z" fill="#32D8DE"/>
<path d="M130.277 43.4268L128.343 43.8582L127.98 42.2344C127.941 42.0648 128.047 41.8903 128.222 41.8515L129.536 41.5558C129.705 41.517 129.88 41.6237 129.918 41.7982L130.277 43.4268Z" fill="#32D8DE"/>
<path d="M133.99 42.5928L132.056 43.0242L131.693 41.4004C131.654 41.2308 131.76 41.0563 131.935 41.0175L133.248 40.7218C133.418 40.683 133.593 40.7897 133.631 40.9642L133.99 42.5928Z" fill="#32D8DE"/>
<path d="M137.703 41.7588L135.769 42.1902L135.405 40.5664C135.367 40.3968 135.473 40.2223 135.648 40.1835L136.961 39.8878C137.131 39.8491 137.305 39.9557 137.344 40.1302L137.703 41.7588Z" fill="#32D8DE"/>
<path d="M140.955 65.325L142.889 64.8936L143.253 66.5173C143.292 66.687 143.185 66.8615 143.011 66.9003L141.697 67.196C141.527 67.2347 141.353 67.1281 141.314 66.9536L140.955 65.325Z" fill="#32D8DE"/>
<path d="M137.238 66.1589L139.172 65.7275L139.535 67.3513C139.574 67.521 139.467 67.6955 139.293 67.7343L137.979 68.0299C137.81 68.0687 137.635 67.9621 137.596 67.7876L137.238 66.1589Z" fill="#32D8DE"/>
<path d="M133.525 66.9929L135.459 66.5615L135.822 68.1853C135.861 68.355 135.754 68.5295 135.58 68.5682L134.266 68.8639C134.097 68.9027 133.922 68.7961 133.883 68.6216L133.525 66.9929Z" fill="#32D8DE"/>
<path d="M129.812 67.8259L131.746 67.3945L132.109 69.0183C132.148 69.188 132.041 69.3625 131.867 69.4013L130.553 69.6969C130.384 69.7357 130.209 69.6291 130.17 69.4546L129.812 67.8259Z" fill="#32D8DE"/>
<path d="M126.099 68.655L128.033 68.2236L128.396 69.8474C128.435 70.0171 128.329 70.1916 128.154 70.2304L126.84 70.526C126.671 70.5648 126.496 70.4582 126.458 70.2837L126.099 68.655Z" fill="#32D8DE"/>
<path d="M122.386 69.489L124.32 69.0576L124.683 70.6814C124.722 70.8511 124.616 71.0256 124.441 71.0643L123.128 71.36C122.958 71.3988 122.783 71.2922 122.745 71.1177L122.386 69.489Z" fill="#32D8DE"/>
<g opacity="0.4">
<path d="M119.134 45.9229L117.199 46.3543L116.836 44.7305C116.797 44.5608 116.904 44.3863 117.078 44.3476L118.392 44.0519C118.562 44.0131 118.736 44.1198 118.775 44.2943L119.134 45.9229Z" fill="black"/>
<path d="M122.846 45.0889L120.912 45.5203L120.549 43.8965C120.51 43.7269 120.617 43.5524 120.791 43.5136L122.105 43.2179C122.274 43.1791 122.449 43.2858 122.488 43.4603L122.846 45.0889Z" fill="black"/>
<path d="M126.564 44.2598L124.63 44.6912L124.267 43.0674C124.228 42.8978 124.335 42.7233 124.509 42.6845L125.823 42.3888C125.992 42.35 126.167 42.4567 126.206 42.6312L126.564 44.2598Z" fill="black"/>
<path d="M130.277 43.4268L128.343 43.8582L127.98 42.2344C127.941 42.0648 128.047 41.8903 128.222 41.8515L129.536 41.5558C129.705 41.517 129.88 41.6237 129.918 41.7982L130.277 43.4268Z" fill="black"/>
<path d="M133.99 42.5928L132.056 43.0242L131.693 41.4004C131.654 41.2308 131.76 41.0563 131.935 41.0175L133.248 40.7218C133.418 40.683 133.593 40.7897 133.631 40.9642L133.99 42.5928Z" fill="black"/>
<path d="M137.703 41.7588L135.769 42.1902L135.405 40.5664C135.367 40.3968 135.473 40.2223 135.648 40.1835L136.961 39.8878C137.131 39.8491 137.305 39.9557 137.344 40.1302L137.703 41.7588Z" fill="black"/>
<path d="M140.955 65.325L142.889 64.8936L143.253 66.5173C143.292 66.687 143.185 66.8615 143.011 66.9003L141.697 67.196C141.527 67.2347 141.353 67.1281 141.314 66.9536L140.955 65.325Z" fill="black"/>
<path d="M137.238 66.1589L139.172 65.7275L139.535 67.3513C139.574 67.521 139.467 67.6955 139.293 67.7343L137.979 68.0299C137.81 68.0687 137.635 67.9621 137.596 67.7876L137.238 66.1589Z" fill="black"/>
<path d="M133.525 66.9929L135.459 66.5615L135.822 68.1853C135.861 68.355 135.754 68.5295 135.58 68.5682L134.266 68.8639C134.097 68.9027 133.922 68.7961 133.883 68.6216L133.525 66.9929Z" fill="black"/>
<path d="M129.812 67.8259L131.746 67.3945L132.109 69.0183C132.148 69.188 132.041 69.3625 131.867 69.4013L130.553 69.6969C130.384 69.7357 130.209 69.6291 130.17 69.4546L129.812 67.8259Z" fill="black"/>
<path d="M126.099 68.655L128.033 68.2236L128.396 69.8474C128.435 70.0171 128.329 70.1916 128.154 70.2304L126.84 70.526C126.671 70.5648 126.496 70.4582 126.458 70.2837L126.099 68.655Z" fill="black"/>
<path d="M122.386 69.489L124.32 69.0576L124.683 70.6814C124.722 70.8511 124.616 71.0256 124.441 71.0643L123.128 71.36C122.958 71.3988 122.783 71.2922 122.745 71.1177L122.386 69.489Z" fill="black"/>
</g>
<path d="M145.56 64.9853L121.111 70.4674C120.18 70.6758 119.259 70.0893 119.051 69.1587L114.325 48.0784C114.117 47.1477 114.703 46.2268 115.634 46.0183L140.083 40.5362C141.014 40.3278 141.934 40.9143 142.143 41.8449L146.869 62.9252C147.077 63.8559 146.491 64.7769 145.56 64.9853Z" fill="#263238"/>
<path opacity="0.4" d="M123.477 69.9344L121.111 70.4628C120.18 70.6712 119.259 70.0895 119.051 69.154L114.325 48.0737C114.117 47.1431 114.698 46.2221 115.634 46.0137L117.999 45.4854C117.069 45.6938 116.482 46.6147 116.69 47.5454L121.416 68.6257C121.625 69.5612 122.546 70.1429 123.477 69.9344Z" fill="black"/>
<path d="M119.633 66.6914L120.064 68.6254L118.44 68.989C118.271 69.0277 118.096 68.9211 118.057 68.7466L117.762 67.433C117.723 67.2634 117.83 67.0889 118.004 67.0501L119.633 66.6914Z" fill="#32D8DE"/>
<path d="M118.799 62.9785L119.23 64.9125L117.607 65.2761C117.437 65.3148 117.262 65.2082 117.224 65.0337L116.928 63.7201C116.889 63.5505 116.996 63.376 117.17 63.3372L118.799 62.9785Z" fill="#32D8DE"/>
<path d="M117.965 59.2656L118.397 61.1996L116.773 61.5632C116.603 61.602 116.429 61.4953 116.39 61.3208L116.094 60.0072C116.055 59.8376 116.162 59.6631 116.337 59.6243L117.965 59.2656Z" fill="#32D8DE"/>
<path d="M117.136 55.5527L117.568 57.4867L115.944 57.8503C115.774 57.8891 115.6 57.7824 115.561 57.6079L115.265 56.2943C115.227 56.1247 115.333 55.9502 115.508 55.9114L117.136 55.5527Z" fill="#32D8DE"/>
<path d="M116.303 51.8398L116.734 53.7739L115.11 54.1374C114.941 54.1762 114.766 54.0695 114.727 53.895L114.432 52.5815C114.393 52.4118 114.5 52.2373 114.674 52.1985L116.303 51.8398Z" fill="#32D8DE"/>
<path d="M115.469 48.1221L115.9 50.0561L114.277 50.4196C114.107 50.4584 113.932 50.3518 113.894 50.1773L113.598 48.8637C113.559 48.694 113.666 48.5195 113.84 48.4808L115.469 48.1221Z" fill="#32D8DE"/>
<g opacity="0.4">
<path d="M119.633 66.6914L120.064 68.6254L118.44 68.989C118.271 69.0277 118.096 68.9211 118.057 68.7466L117.762 67.433C117.723 67.2634 117.83 67.0889 118.004 67.0501L119.633 66.6914Z" fill="black"/>
<path d="M118.799 62.9785L119.23 64.9125L117.607 65.2761C117.437 65.3148 117.262 65.2082 117.224 65.0337L116.928 63.7201C116.889 63.5505 116.996 63.376 117.17 63.3372L118.799 62.9785Z" fill="black"/>
<path d="M117.965 59.2656L118.397 61.1996L116.773 61.5632C116.603 61.602 116.429 61.4953 116.39 61.3208L116.094 60.0072C116.055 59.8376 116.162 59.6631 116.337 59.6243L117.965 59.2656Z" fill="black"/>
<path d="M117.136 55.5527L117.568 57.4867L115.944 57.8503C115.774 57.8891 115.6 57.7824 115.561 57.6079L115.265 56.2943C115.227 56.1247 115.333 55.9502 115.508 55.9114L117.136 55.5527Z" fill="black"/>
<path d="M116.303 51.8398L116.734 53.7739L115.11 54.1374C114.941 54.1762 114.766 54.0695 114.727 53.895L114.432 52.5815C114.393 52.4118 114.5 52.2373 114.674 52.1985L116.303 51.8398Z" fill="black"/>
<path d="M115.469 48.1221L115.9 50.0561L114.277 50.4196C114.107 50.4584 113.932 50.3518 113.894 50.1773L113.598 48.8637C113.559 48.694 113.666 48.5195 113.84 48.4808L115.469 48.1221Z" fill="black"/>
</g>
<path d="M102.425 76.251L103.409 76.7696C103.409 76.7696 102.367 84.2488 99.929 85.8774L98.9305 84.7287C98.9256 84.7335 102.377 80.2402 102.425 76.251Z" fill="#32D8DE"/>
<path d="M114.718 75.6211L113.496 76.2512C113.496 76.2512 115.755 83.4832 117.214 85.1118L118.048 83.9631C118.048 83.9631 115.27 79.3631 114.718 75.6211Z" fill="#32D8DE"/>
<path opacity="0.2" d="M102.304 71.8209C102.304 71.8209 99.1777 78.1609 93.715 79.9544C93.6132 78.3354 93.5017 76.6632 93.3757 74.9667C93.2351 72.9793 93.0751 70.9629 92.9103 68.9756L102.304 71.8209Z" fill="black"/>
<path d="M106.516 66.9105L112.818 64.7875C112.818 64.7875 118.474 59.7464 119.72 59.7755C120.966 59.8046 122.022 62.9649 122.594 64.1622C123.171 65.3643 117.258 67.7976 116.375 68.3065C115.498 68.8155 114.277 68.3065 114.277 68.3065L107.844 71.1179L106.516 66.9105Z" fill="#B97964"/>
<path d="M90.8551 47.7734C84.9804 48.5538 88.0244 70.6714 91.81 75.0145C94.9704 78.645 106.497 73.3131 110.21 71.4567C110.879 71.1222 111.199 70.3467 110.961 69.6341L109.875 66.3817C109.623 65.6352 108.843 65.2038 108.077 65.3977C104.951 66.1926 97.4085 67.9812 96.4924 66.91C95.3339 65.5577 93.7974 58.9122 94.0543 54.6903C94.316 50.4685 90.8551 47.7734 90.8551 47.7734Z" fill="#32D8DE"/>
<path d="M108.964 65.4466L110.985 70.507L112.793 69.4067L111.044 64.9521L108.964 65.4466Z" fill="#32D8DE"/>
<path opacity="0.3" d="M108.964 65.4466L110.985 70.507L112.793 69.4067L111.044 64.9521L108.964 65.4466Z" fill="black"/>
<path d="M206.693 6.79085V146.365C206.693 147.514 205.772 148.405 204.623 148.405H139.666C139.147 148.405 138.697 148.212 138.367 147.887C138.023 147.552 137.814 147.072 137.814 146.534V6.62605C137.814 5.70994 138.483 4.915 139.399 4.915H157.848C158.366 4.915 158.841 5.2543 159.035 5.74387L159.801 7.62457C159.995 8.10928 160.47 8.44374 160.989 8.44374H183.562C184.085 8.44374 184.556 8.12382 184.749 7.63426L185.515 5.74387C185.709 5.2543 186.184 4.91016 186.703 4.91016H204.885C205.888 4.91016 206.693 5.78749 206.693 6.79085Z" fill="#32D8DE"/>
<path d="M209.601 6.79085V146.365C209.601 147.514 208.68 148.405 207.531 148.405H142.574C142.056 148.405 141.605 148.212 141.275 147.887C140.931 147.552 140.723 147.072 140.723 146.534V6.62605C140.723 5.70994 141.392 4.915 142.308 4.915H160.756C161.275 4.915 161.75 5.2543 161.944 5.74387L162.709 7.62457C162.903 8.10928 163.378 8.44374 163.897 8.44374H186.47C186.994 8.44374 187.464 8.12382 187.658 7.63426L188.424 5.74387C188.617 5.2543 189.093 4.91016 189.611 4.91016H207.793C208.796 4.91016 209.601 5.78749 209.601 6.79085Z" fill="#32D8DE"/>
<path opacity="0.4" d="M209.601 6.79085V146.365C209.601 147.514 208.68 148.405 207.531 148.405H142.574C142.056 148.405 141.605 148.212 141.275 147.887C140.931 147.552 140.723 147.072 140.723 146.534V6.62605C140.723 5.70994 141.392 4.915 142.308 4.915H160.756C161.275 4.915 161.75 5.2543 161.944 5.74387L162.709 7.62457C162.903 8.10928 163.378 8.44374 163.897 8.44374H186.47C186.994 8.44374 187.464 8.12382 187.658 7.63426L188.424 5.74387C188.617 5.2543 189.093 4.91016 189.611 4.91016H207.793C208.796 4.91016 209.601 5.78749 209.601 6.79085Z" fill="white"/>
<path opacity="0.6" d="M149.284 10.5381H150.243V9.25844H149.284V10.5381Z" fill="white"/>
<path opacity="0.6" d="M147.721 10.5371H148.68V8.83091H147.721V10.5371Z" fill="white"/>
<path opacity="0.6" d="M146.158 10.5371H147.117V8.40436H146.158V10.5371Z" fill="white"/>
<path opacity="0.6" d="M144.595 10.5371H145.555V7.97781H144.595V10.5371Z" fill="white"/>
<path opacity="0.6" d="M200.803 8.78906H200.236V10.0687H200.803V8.78906Z" fill="white"/>
<path opacity="0.6" d="M201.197 10.5342H205.729V8.31903H201.197V10.5342Z" fill="white"/>
<path d="M153.32 111.334H197.008C198.37 111.334 199.475 112.439 199.475 113.801C199.475 115.163 198.37 116.268 197.008 116.268H153.32C151.958 116.268 150.853 115.163 150.853 113.801C150.853 112.439 151.958 111.334 153.32 111.334Z" fill="#32D8DE"/>
<path opacity="0.3" d="M153.32 111.334H197.008C198.37 111.334 199.475 112.439 199.475 113.801C199.475 115.163 198.37 116.268 197.008 116.268H153.32C151.958 116.268 150.853 115.163 150.853 113.801C150.853 112.439 151.958 111.334 153.32 111.334Z" fill="black"/>
<path d="M167.44 111.775C168.555 111.775 169.466 112.682 169.466 113.801C169.466 114.916 168.56 115.828 167.44 115.828H153.316C152.201 115.828 151.289 114.921 151.289 113.801C151.289 112.687 152.196 111.775 153.316 111.775H167.44Z" fill="#32D8DE"/>
<g opacity="0.1">
<path d="M171.706 8.44373L151.876 82.7167V82.7216L151.653 83.5553V83.5602L151.294 84.898V84.9028L151.071 85.7365L140.718 124.519V77.5788L160.116 4.91016H160.746C161.265 4.91016 161.74 5.24946 161.934 5.73902L162.7 7.61972C162.894 8.10443 163.369 8.43889 163.887 8.43889H171.706V8.44373Z" fill="white"/>
<path d="M209.601 46.3779V93.313L197.231 139.637L196.93 140.767L194.895 148.406H182.36L184.4 140.772L184.73 139.54L186.368 133.404L186.693 132.177L187.352 129.72L187.677 128.494L188.332 126.041L188.656 124.815L198.966 86.2022V86.1973L199.446 84.4136V84.4087L209.601 46.3779Z" fill="white"/>
<path d="M178.497 8.44336L158.793 82.2511L158.672 82.6921L157.596 86.7347L157.474 87.1758L141.275 147.886C140.931 147.552 140.723 147.072 140.723 146.534V139.394L154.663 87.1806L154.784 86.7395L155.86 82.697L155.982 82.2559L175.685 8.44821H178.497V8.44336Z" fill="white"/>
</g>
<path d="M196.431 73.366C196.431 83.6177 189.175 92.1778 179.519 94.1894C178.114 94.4802 176.655 94.6353 175.162 94.6353C173.669 94.6353 172.21 94.4802 170.804 94.1894C161.144 92.1778 153.888 83.6177 153.888 73.366C153.888 61.6165 163.412 52.0918 175.162 52.0918C186.906 52.0918 196.431 61.6165 196.431 73.366Z" fill="#32D8DE"/>
<path opacity="0.6" d="M186.082 71.5971H180.319C179.878 71.5971 179.519 71.9557 179.519 72.3968V94.1897C178.114 94.4805 176.655 94.6356 175.162 94.6356C173.669 94.6356 172.21 94.4805 170.804 94.1897V72.3968C170.804 71.9557 170.445 71.5971 170 71.5971H164.236C163.524 71.5971 163.165 70.7294 163.669 70.2253L174.595 59.3047C174.905 58.9896 175.414 58.9896 175.729 59.3047L186.65 70.2253C187.158 70.7294 186.8 71.5971 186.082 71.5971Z" fill="white"/>
</svg>
